<?xml version="1.0" encoding="utf-8"?>
<!-- Generator: Adobe Illustrator 25.3.1, SVG Export Plug-In . SVG Version: 6.00 Build 0)  -->
<svg version="1.1" id="Capa_1" xmlns="http://www.w3.org/2000/svg" xmlns:xlink="http://www.w3.org/1999/xlink" x="0px" y="0px"
	 viewBox="0 0 40 40" style="enable-background:new 0 0 40 40;" xml:space="preserve">
<style type="text/css">
	.st0{fill:none;stroke:#032049;stroke-width:3.5;stroke-miterlimit:10;}
	.st1{fill:#FFFFFF;stroke:#032049;stroke-width:2;stroke-miterlimit:10;}
	.st2{fill:none;stroke:#032049;stroke-width:2;stroke-miterlimit:10;}
	.st3{display:none;}
	.st4{display:inline;fill:#FFFFFF;}
</style>
<path class="st0" d="M29.9,37H10c-4.4,0-7.8-3.5-7.8-7.8V11.3C2.2,7,5.6,3.5,10,3.5h20c4.4,0,7.8,3.5,7.8,7.8v17.8
	C37.8,33.5,34.3,37,29.9,37z"/>
<circle class="st1" cx="30.8" cy="9.9" r="2.7"/>
<circle class="st2" cx="20" cy="20" r="8.5"/>
<g id="twitter" class="st3">
	<path class="st4" d="M35.7,11.2c0,0.7,0.1,1.3,0.1,2c0,12.4-10.1,22.5-22.5,22.5C8.1,35.7,3.4,34-0.4,31c1.2,0.4,2.5,0.6,3.9,0.6
		c3.3,0,6.2-1.3,8.4-3.3c-3.6,0-6.7-2.8-7.1-6.4c0.6,0.4,1.3,0.7,2,0.7c0.3,0,0.5,0,0.7-0.1c-1-0.3-2-0.8-2.8-1.5
		c-0.5-0.4-0.9-0.9-1.3-1.4C2.6,18.3,2,16.8,2,15.1c0-0.5,0-0.9,0.1-1.3c0.6,0.9,1.6,1.4,2.7,1.4H5c-1-0.9-1.7-2.1-2.2-3.4
		c-0.3-0.7-0.4-1.4-0.5-2.2c0-0.3,0-0.5,0-0.8c0-0.5,0-1,0.1-1.4c0.2-1,0.5-2,1-2.9c0.9,1.2,2,2.3,3.1,3.3c0.2,0,0.3,0.1,0.4,0.2
		c1.7,1.4,3.6,2.5,5.6,3.3c1.3,0.5,2.8,1,4.2,1.2c0.8,0.1,1.5,0.2,2.3,0.3c0.2,0,0.4,0,0.6,0c-0.1-0.3-0.2-0.7-0.2-1
		c-0.1-0.3-0.1-0.6-0.1-0.9c0-1,0.2-2,0.6-2.9c1.2-2.9,4-4.9,7.3-4.9c0.8,0,1.6,0.1,2.3,0.3c0.3,0.1,0.7,0.3,1,0.4
		C30.8,4,31,4,31.1,4.1c0.7,0.3,1.2,0.8,1.7,1.3c0.1,0,0.3,0.1,0.4,0.1c0.3,0.1,0.7,0.1,1,0.1c0,0,0.1,0,0.2,0
		c0.9,0,1.8-0.3,2.5-0.8c0.5-0.3,1-0.8,1.3-1.3c0,0.2,0,0.3,0,0.5c0,1.9-1.4,3.4-3.3,3.6c0,0,0,0,0,0.1c0.5,0.2,1,0.3,1.6,0.3
		c1.2,0,2.3-0.6,2.9-1.4C39.4,8.8,37.9,10.7,35.7,11.2z"/>
</g>
</svg>
