<?xml version="1.0" encoding="utf-8"?>
<!-- Generator: Adobe Illustrator 25.3.1, SVG Export Plug-In . SVG Version: 6.00 Build 0)  -->
<svg version="1.1" id="Capa_1" xmlns="http://www.w3.org/2000/svg" xmlns:xlink="http://www.w3.org/1999/xlink" x="0px" y="0px"
	 viewBox="0 0 40 40" style="enable-background:new 0 0 40 40;" xml:space="preserve">
<style type="text/css">
	.st0{fill:#032049;}
</style>
<path class="st0" d="M36.1,11.5c0,0.7,0.1,1.3,0.1,2C36.2,25.9,26.1,36,13.7,36C8.6,36,3.8,34.3,0,31.3c1.2,0.4,2.5,0.6,3.9,0.6
	c3.3,0,6.2-1.3,8.4-3.3c-3.6,0-6.7-2.8-7.1-6.4c0.6,0.4,1.3,0.7,2,0.7c0.3,0,0.5,0,0.7-0.1c-1-0.3-2-0.8-2.8-1.5
	c-0.5-0.4-0.9-0.9-1.3-1.4c-0.9-1.3-1.4-2.8-1.4-4.4c0-0.5,0-0.9,0.1-1.3c0.6,0.9,1.6,1.4,2.7,1.4h0.1c-1-0.9-1.7-2.1-2.2-3.4
	c-0.3-0.7-0.4-1.4-0.5-2.2c0-0.3,0-0.5,0-0.8c0-0.5,0-1,0.1-1.4c0.2-1,0.5-2,1-2.9C4.8,6,5.8,7,6.9,8C7,8.1,7.2,8.2,7.3,8.3
	c1.7,1.4,3.6,2.5,5.6,3.3c1.3,0.5,2.8,1,4.2,1.2c0.8,0.1,1.5,0.2,2.3,0.3c0.2,0,0.4,0,0.6,0c-0.1-0.3-0.2-0.7-0.2-1
	c-0.1-0.3-0.1-0.6-0.1-0.9c0-1,0.2-2,0.6-2.9c1.2-2.9,4-4.9,7.3-4.9c0.8,0,1.6,0.1,2.3,0.3c0.3,0.1,0.7,0.3,1,0.4
	c0.1,0.1,0.3,0.1,0.4,0.2C32,4.6,32.5,5.1,33,5.6c0.1,0,0.3,0.1,0.4,0.1C34,6,34.4,6,34.7,6c0,0,0.1,0,0.2,0c0.9,0,1.8-0.3,2.5-0.8
	c0.5-0.3,1-0.8,1.3-1.3c0,0.2,0,0.3,0,0.5c0,1.9-1.4,3.4-3.3,3.6c0,0,0,0,0,0.1c0.5,0.2,1,0.3,1.6,0.3c1.2,0,2.3-0.6,2.9-1.4
	C39.8,9.1,38.2,11,36.1,11.5z"/>
</svg>
