<?xml version="1.0" encoding="utf-8"?>
<!-- Generator: Adobe Illustrator 25.3.1, SVG Export Plug-In . SVG Version: 6.00 Build 0)  -->
<svg version="1.1" id="Capa_1" xmlns="http://www.w3.org/2000/svg" xmlns:xlink="http://www.w3.org/1999/xlink" x="0px" y="0px"
	 viewBox="0 0 40 40" style="enable-background:new 0 0 40 40;" xml:space="preserve">
<style type="text/css">
	.st0{display:none;}
	.st1{display:inline;fill:none;stroke:#FFFFFF;stroke-width:5;stroke-miterlimit:10;}
	.st2{display:inline;fill:#FFFFFF;}
	.st3{display:inline;fill:none;stroke:#FFFFFF;stroke-width:4;stroke-miterlimit:10;}
	.st4{fill:none;stroke:#032049;stroke-width:4;stroke-miterlimit:10;}
	.st5{fill:#FFFFFF;stroke:#032049;stroke-miterlimit:10;}
</style>
<g id="instagram" class="st0">
	<path class="st1" d="M29.8,36.5H10.2c-4.3,0-7.7-3.4-7.7-7.7V11.2c0-4.3,3.4-7.7,7.7-7.7h19.7c4.3,0,7.7,3.4,7.7,7.7v17.5
		C37.6,33,34.1,36.5,29.8,36.5z"/>
	<circle class="st2" cx="30.8" cy="9.9" r="2.7"/>
	<circle class="st3" cx="20" cy="20" r="8.5"/>
</g>
<g id="Capa_3">
	<path class="st4" d="M20.5,2.1C11,2.1,3.4,9.7,3.4,19.2c0,3.4,1,6.6,2.7,9.3l-0.9,2.9l-1.8,5.7l5.9-1.3l4.4-1
		c2.1,0.9,4.4,1.4,6.8,1.4c9.5,0,17.1-7.7,17.1-17.1S29.9,2.1,20.5,2.1z"/>
	<path class="st5" d="M30.2,24.6c0,1.2-0.7,3.7-5.1,3.7c0,0-5.3-1.1-9.1-5.2c-2.6-2.7-3.8-5.8-4.4-7.5c-0.3-1-0.3-2.1,0-3.1
		c0.3-1.1,1.1-2.5,2.3-3.3C14.1,9.1,14.4,9,14.7,9l1,0.1c0.3,0.1,0.6,0.3,0.8,0.7l1.4,4c0.1,0.4,0.1,1-0.2,1.4
		c-0.2,0.3-0.6,0.6-1.2,1c-0.3,0.2-0.3,0.6-0.2,1c0.5,1.2,2,4.3,6.1,6.1c0.4,0.2,0.8,0.1,1.1-0.2l1.7-1.6c0.3-0.3,0.7-0.3,1.1-0.1
		l3.3,2C30,23.7,30.2,24.2,30.2,24.6z"/>
</g>
<g id="twitter" class="st0">
	<path class="st2" d="M35.7,11.2c0,0.7,0.1,1.3,0.1,2c0,12.4-10.1,22.5-22.5,22.5C8.1,35.7,3.4,34-0.4,31c1.2,0.4,2.5,0.6,3.9,0.6
		c3.3,0,6.2-1.3,8.4-3.3c-3.6,0-6.7-2.8-7.1-6.4c0.6,0.4,1.3,0.7,2,0.7c0.3,0,0.5,0,0.7-0.1c-1-0.3-2-0.8-2.8-1.5
		c-0.5-0.4-0.9-0.9-1.3-1.4C2.6,18.3,2,16.8,2,15.1c0-0.5,0-0.9,0.1-1.3c0.6,0.9,1.6,1.4,2.7,1.4H5c-1-0.9-1.7-2.1-2.2-3.4
		c-0.3-0.7-0.4-1.4-0.5-2.2c0-0.3,0-0.5,0-0.8c0-0.5,0-1,0.1-1.4c0.2-1,0.5-2,1-2.9c0.9,1.2,2,2.3,3.1,3.3c0.2,0,0.3,0.1,0.4,0.2
		c1.7,1.4,3.6,2.5,5.6,3.3c1.3,0.5,2.8,1,4.2,1.2c0.8,0.1,1.5,0.2,2.3,0.3c0.2,0,0.4,0,0.6,0c-0.1-0.3-0.2-0.7-0.2-1
		c-0.1-0.3-0.1-0.6-0.1-0.9c0-1,0.2-2,0.6-2.9c1.2-2.9,4-4.9,7.3-4.9c0.8,0,1.6,0.1,2.3,0.3c0.3,0.1,0.7,0.3,1,0.4
		C30.8,4,31,4,31.1,4.1c0.7,0.3,1.2,0.8,1.7,1.3c0.1,0,0.3,0.1,0.4,0.1c0.3,0.1,0.7,0.1,1,0.1c0,0,0.1,0,0.2,0
		c0.9,0,1.8-0.3,2.5-0.8c0.5-0.3,1-0.8,1.3-1.3c0,0.2,0,0.3,0,0.5c0,1.9-1.4,3.4-3.3,3.6c0,0,0,0,0,0.1c0.5,0.2,1,0.3,1.6,0.3
		c1.2,0,2.3-0.6,2.9-1.4C39.4,8.8,37.9,10.7,35.7,11.2z"/>
</g>
</svg>
